<?xml version="1.0" encoding="UTF-8"?>
<svg id="Camada_1" data-name="Camada 1" xmlns="http://www.w3.org/2000/svg" version="1.1" viewBox="0 0 1080 1080">
  <defs>
    <style>
      .cls-1 {
        fill: #f07d19;
      }

      .cls-1, .cls-2, .cls-3 {
        stroke-width: 0px;
      }

      .cls-2 {
        fill: #4a2583;
      }

      .cls-3 {
        fill: #fff;
      }
    </style>
  </defs>
  <rect class="cls-2" y=".75" width="1080" height="1080"/>
  <g>
    <g>
      <path class="cls-3" d="M219.66,735.04h-16.77l-3.76,8.82h-1.52l12.92-30.46h1.23l13.27,30.46h-1.54l-3.83-8.82ZM203.45,733.7h15.64l-7.92-18.23-7.72,18.23Z"/>
      <path class="cls-3" d="M242.76,734.91h1.45c0,4.8,3.69,7.91,9.24,7.91,5.06,0,8.61-2.89,8.61-7.16,0-4.83-4.28-5.76-8.83-6.77-4.73-1.03-9.79-2.17-9.79-7.81,0-4.88,3.86-8.04,9.79-8.04s9.49,3.36,9.49,8.48h-1.41c0-4.31-3.25-7.09-8.09-7.09s-8.34,2.6-8.34,6.61c0,4.61,4.31,5.54,8.79,6.52,4.82,1.08,9.87,2.22,9.87,8.09,0,5.18-4.19,8.57-10.05,8.57-6.42,0-10.69-3.69-10.69-9.31Z"/>
      <path class="cls-3" d="M283.32,734.91h1.45c0,4.8,3.69,7.91,9.24,7.91,5.06,0,8.61-2.89,8.61-7.16,0-4.83-4.28-5.76-8.83-6.77-4.73-1.03-9.79-2.17-9.79-7.81,0-4.88,3.86-8.04,9.79-8.04s9.49,3.36,9.49,8.48h-1.41c0-4.31-3.25-7.09-8.09-7.09s-8.34,2.6-8.34,6.61c0,4.61,4.31,5.54,8.79,6.52,4.82,1.08,9.87,2.22,9.87,8.09,0,5.18-4.19,8.57-10.05,8.57-6.42,0-10.69-3.69-10.69-9.31Z"/>
      <path class="cls-3" d="M343.14,742.48v1.38h-16.86v-30.46h16.38v1.37h-14.96v12.5h13.83v1.35h-13.83v13.86h15.44Z"/>
      <path class="cls-3" d="M362.66,734.91h1.45c0,4.8,3.69,7.91,9.24,7.91,5.06,0,8.61-2.89,8.61-7.16,0-4.83-4.28-5.76-8.83-6.77-4.73-1.03-9.79-2.17-9.79-7.81,0-4.88,3.86-8.04,9.79-8.04s9.49,3.36,9.49,8.48h-1.41c0-4.31-3.25-7.09-8.09-7.09s-8.34,2.6-8.34,6.61c0,4.61,4.31,5.54,8.79,6.52,4.82,1.08,9.87,2.22,9.87,8.09,0,5.18-4.19,8.57-10.05,8.57-6.42,0-10.69-3.69-10.69-9.31Z"/>
      <path class="cls-3" d="M403.22,734.91h1.45c0,4.8,3.69,7.91,9.24,7.91,5.06,0,8.61-2.89,8.61-7.16,0-4.83-4.28-5.76-8.83-6.77-4.73-1.03-9.79-2.17-9.79-7.81,0-4.88,3.86-8.04,9.79-8.04s9.49,3.36,9.49,8.48h-1.41c0-4.31-3.25-7.09-8.09-7.09s-8.34,2.6-8.34,6.61c0,4.61,4.31,5.54,8.79,6.52,4.82,1.08,9.87,2.22,9.87,8.09,0,5.18-4.19,8.57-10.05,8.57-6.42,0-10.69-3.69-10.69-9.31Z"/>
      <path class="cls-3" d="M443.9,728.66c0-8.94,6.55-15.72,15.71-15.72s15.71,6.75,15.71,15.72-6.55,15.66-15.71,15.66-15.71-6.75-15.71-15.66ZM473.87,728.66c0-8.17-5.95-14.32-14.26-14.32s-14.26,6.19-14.26,14.32,5.95,14.25,14.26,14.25,14.26-6.11,14.26-14.25Z"/>
      <path class="cls-3" d="M509.95,730.57l7.95,13.29h-1.62l-7.9-13.22h-9.35v13.22h-1.43v-30.46h11.06c5.35,0,9.26,3.62,9.26,8.65,0,4.57-3.3,8-7.98,8.52ZM499.04,729.27h9.58c4.62,0,7.87-3.05,7.87-7.23s-3.27-7.27-7.87-7.27h-9.58v14.5Z"/>
      <path class="cls-3" d="M540.35,713.4h1.43v30.46h-1.43v-30.46Z"/>
      <path class="cls-3" d="M584.79,735.04h-16.77l-3.76,8.82h-1.52l12.92-30.46h1.23l13.27,30.46h-1.54l-3.83-8.82ZM568.58,733.7h15.64l-7.92-18.23-7.72,18.23Z"/>
      <path class="cls-3" d="M661.52,728.6c0,8.83-6.52,15.26-15.45,15.26h-8.98v-30.46h8.98c8.96,0,15.45,6.4,15.45,15.2ZM660.07,728.6c0-8.01-5.88-13.84-14.03-13.84h-7.52v27.74h7.52c8.13,0,14.03-5.86,14.03-13.9Z"/>
      <path class="cls-3" d="M683.79,713.4h1.43v30.46h-1.43v-30.46Z"/>
      <path class="cls-3" d="M737.68,729.58c-.3,8.67-6.44,14.68-14.95,14.68-8.93,0-15.2-6.59-15.2-15.59s6.46-15.64,15.18-15.64c7.13,0,13.14,4.48,14.46,10.72h-1.46c-1.31-5.44-6.67-9.31-12.98-9.31-7.94,0-13.75,6.01-13.75,14.24s5.68,14.19,13.75,14.19c7.33,0,12.71-4.83,13.43-11.9h-14.9v-1.37h16.42Z"/>
      <path class="cls-3" d="M759.77,713.4h1.43v30.46h-1.43v-30.46Z"/>
      <path class="cls-3" d="M803.32,714.76h-9.93v29.1h-1.42v-29.1h-9.93v-1.36h21.29v1.36Z"/>
      <path class="cls-3" d="M839.73,735.04h-16.77l-3.76,8.82h-1.52l12.92-30.46h1.23l13.27,30.46h-1.54l-3.83-8.82ZM823.52,733.7h15.64l-7.92-18.23-7.72,18.23Z"/>
      <path class="cls-3" d="M882.36,742.5v1.36h-16.31v-30.46h1.43v29.1h14.88Z"/>
    </g>
    <g>
      <path class="cls-1" d="M686.35,463.48c-.34,5.17-.63,10.34-1.04,15.51-.34,4.22-2.26,5.3-5.92,3.11-11.36-6.8-22.69-13.64-33.91-20.65-3.65-2.28-5.72-5.88-6-10.28-.53-8.34-1.96-16.54-5.61-24.08-12.42-25.68-30.7-45.02-59.32-52.06-26.99-6.64-52.64-3.24-75.77,12.98-11.78,8.26-20.56,19.32-27.6,31.86-4.15,7.38-7.16,15.09-8.44,23.46-.39,2.55-.46,5.15-.75,7.73-.52,4.68-2.73,8.42-6.73,10.88-11.02,6.77-22.09,13.48-33.19,20.12-3.85,2.31-6.02,1.13-6.13-3.6-.22-9.36-.57-18.75-.04-28.08.92-16.06,4.86-31.52,11.87-46.01,19.51-40.35,51.45-65.24,94.98-75.4,12.26-2.86,24.75-3.48,37.24-2.62,28.28,1.97,53.52,12.03,75.66,29.69,19.36,15.45,33.48,34.78,41.98,58.1,5.8,15.93,8.75,33.37,8.72,49.37Z"/>
      <path class="cls-1" d="M678.78,506.76c-.53,1.41-.79,2.38-1.24,3.24-5.25,9.95-10.47,19.92-15.82,29.82-2.43,4.49-4.17,5.02-8.61,2.37-13.4-7.99-26.68-16.16-40.05-24.19-18.65-11.21-37.36-22.34-56.01-33.55-4.03-2.42-7.93-2.32-11.85.04-28.09,16.93-56.17,33.88-84.25,50.82-3.84,2.32-7.64,4.71-11.52,6.97-4.03,2.34-5.83,1.99-8.48-1.8-7.28-10.4-13.15-21.55-17.48-33.5-.71-1.95-.06-2.92,1.56-3.87,16.89-10.02,33.75-20.08,50.61-30.15,22.27-13.31,44.53-26.64,66.79-39.96.59-.35,1.22-.64,1.77-1.04,4.78-3.53,9.31-2.98,14.21.12,9.19,5.82,18.63,11.26,27.95,16.87,28.29,17.03,56.57,34.05,84.85,51.1,1.82,1.1,3.7,2.16,5.32,3.52,1.01.84,1.57,2.21,2.25,3.2Z"/>
    </g>
    <g>
      <path class="cls-3" d="M273.33,692.02c-44.41,0-76.1-30.34-76.1-72.56s31.69-72.56,76.1-72.56,75.87,30.23,75.87,72.56-31.57,72.56-75.87,72.56h0ZM273.33,656.61c21.02,0,36.24-15.53,36.24-37.15s-15.22-37.15-36.24-37.15-36.47,15.64-36.47,37.15,15.45,37.15,36.47,37.15h0Z"/>
      <path class="cls-3" d="M365.45,642.78v-60.82h36.71v59.22c0,11.25,6.05,17.86,15.85,17.86s15.74-6.73,15.74-17.86v-59.22h36.71v60.82c0,29.82-20.97,49.24-52.44,49.24s-52.56-19.42-52.56-49.24Z"/>
      <path class="cls-3" d="M564.02,656.38v32.15h-25.25c-23.57,0-37.89-14.41-37.89-38.09v-40.21h-19.51v-8.58l47.75-50.84h7.54v31.16h26.77v28.27h-25.85v33.91c0,7.63,4.61,12.24,12.35,12.24h14.09Z"/>
      <path class="cls-3" d="M622.26,692.02c-29.04,0-46.7-15.34-47.03-38.43h35.33c0,7.79,5.42,11.38,12.38,11.38,5.37,0,10.46-2.74,10.46-8.25,0-6.15-8.07-7.9-18.31-9.59-16.52-2.68-38.43-7.66-38.43-33.51,0-21.36,18.2-35.15,45.51-35.15s44.72,14.44,45.14,36.03h-34.37c0-6.8-4.57-9.97-11.22-9.97-5.88,0-9.84,2.91-9.84,7.85,0,6.06,8.15,7.48,18.27,9.28,16.83,2.99,39.22,6.49,39.22,33.51,0,22.27-18.8,36.84-47.12,36.84h0Z"/>
      <path class="cls-3" d="M796.33,634.24c0,3.21-.28,6.42-.76,9.72h-79.13c2.4,12.22,10.17,18.54,21.75,18.54,8.57,0,15.74-3.76,19.27-9.99h36.53c-7.5,24.32-29.06,39.52-55.79,39.52-33.25,0-57.88-24.3-57.88-56.86s24.44-56.69,57.88-56.69,58.13,24.51,58.13,55.76h0ZM717.09,623.63h43.08c-3.22-10.65-10.9-16.4-21.97-16.4s-18.14,5.81-21.11,16.4Z"/>
      <path class="cls-3" d="M883.31,656.38v32.15h-25.25c-23.57,0-37.89-14.41-37.89-38.09v-40.21h-19.5v-8.58l47.75-50.84h7.54v31.16h26.77v28.27h-25.85v33.91c0,7.63,4.61,12.24,12.35,12.24h14.09Z"/>
    </g>
  </g>
</svg>